<svg width="190" height="40" viewBox="0 0 190 40" fill="none" xmlns="http://www.w3.org/2000/svg"><path fill-rule="evenodd" clip-rule="evenodd" d="M20 40c11.0457 0 20-8.9543 20-20C40 8.95431 31.0457 0 20 0 8.95431 0 0 8.95431 0 20c0 11.0457 8.95431 20 20 20zm1.7401-10.0009h4.4373l5.3573-19.99999h-4.4373L21.7401 29.9991zm-6.8404-12.8497c-3.5494 0-6.42669 2.8773-6.42669 6.4267 0 3.5493 2.87729 6.4266 6.42669 6.4266 3.5493 0 6.4266-2.8773 6.4266-6.4266 0-3.5494-2.88-6.4267-6.4266-6.4267zm-.0007 8.4128c-1.0987 0-1.9867-.8907-1.9867-1.9867 0-1.096.8907-1.9866 1.9867-1.9866 1.0986 0 1.9866.8906 1.9866 1.9866s-.8906 1.9867-1.9866 1.9867zM61.2072 27.3417c3.4933.0054 6.376-3.0586 6.3813-7.032.0053-3.9733-2.872-7.0426-6.3653-7.048-1.7867-.0026-3.096.608-3.976 1.6214l.0026-1.2534-4-.0053-.0213 18.6667 4 .0053.008-6.5867c.8773 1.016 2.184 1.6294 3.9707 1.632zm-.797-10.2934c1.84 0 3.1733 1.256 3.1707 3.256-.0027 2-1.336 3.256-3.176 3.2534-1.84-.0027-3.1734-1.2587-3.1707-3.2587 0-2 1.336-3.2533 3.176-3.2507zM71.8656 7.67481c-1.3067-.00267-2.4 1.09067-2.4027 2.39729 0 1.3067 1.0907 2.4 2.3973 2.4027 1.3067.0027 2.4-1.0907 2.4027-2.3973.0027-1.30669-1.0907-2.40002-2.3973-2.40269zm1.989 5.97599l-4-.0053-.016 13.3333 4 .0054.016-13.3334zM84.7658 27.371c3.4933.0054 6.376-3.0586 6.3813-7.032.0053-3.9733-2.872-7.0453-6.3653-7.048-1.7867-.0026-3.0934.608-3.976 1.6214l.0026-1.2534-4-.0053-.0213 18.6667 4 .0053.008-6.5867c.8773 1.016 2.184 1.6294 3.9707 1.632zm-.7872-10.2929c1.84 0 3.1733 1.256 3.1706 3.256-.0026 2-1.3386 3.256-3.1786 3.2534-1.84-.0027-3.1734-1.2587-3.1707-3.2587.0027-2 1.3387-3.2533 3.1787-3.2507zM99.8051 13.3076c-3.92-.0053-7.0693 3.0587-7.0746 7.032-.0054 3.976 3.1386 7.0427 7.0586 7.048 3.9199.0054 7.0689-3.0586 7.0749-7.032.005-3.9733-3.139-7.0426-7.0589-7.048zm-.0033 3.8955c1.7332 0 3.0662 1.256 3.0642 3.1494-.003 1.8933-1.339 3.144-3.0722 3.144-1.7334 0-3.0667-1.256-3.064-3.1494.0026-1.8933 1.3386-3.1466 3.072-3.144z" fill="#1743C9"/><path d="M126.142 23.045c-.003 3.0667-2.672 4.3707-5.552 4.368-2.667-.0027-4.693-1.0187-5.731-3.1813l3.47-1.968c.346 1.0133 1.09 1.576 2.264 1.576.96 0 1.44-.2907 1.44-.824.002-1.4667-6.56-.7014-6.555-5.3147.003-2.9067 2.459-4.3707 5.232-4.368 2.16.0027 4.08.9653 5.197 2.8587l-3.416 1.8373c-.373-.6933-.904-1.1733-1.784-1.176-.693 0-1.12.264-1.12.744-.002 1.52 6.56.5147 6.555 5.448z" fill="#1743C9"/><path fill-rule="evenodd" clip-rule="evenodd" d="M141.684 27.064l.016-13.3333-4-.0053-.002 1.2533c-.878-1.016-2.184-1.6293-3.971-1.632-3.493-.0053-6.376 3.0587-6.381 7.032-.006 3.9733 2.872 7.0427 6.365 7.048 1.787.0027 3.093-.608 3.976-1.6213l-.003 1.2533 4 .0053zm-7.164-9.9253c1.84 0 3.174 1.256 3.171 3.256-.003 2-1.339 3.2506-3.176 3.2533-1.84-.0027-3.173-1.2587-3.171-3.2587 0-2 1.336-3.2533 3.176-3.2506zM148.456 12.1389l3.84.0053 3.099-3.73066-4.8-.00534-2.139 3.7307zm8.782 14.9438l.016-13.3333-4-.0053-.008 7.28c-.003 1.8933-1.016 2.7466-2.483 2.744-1.28 0-2.32-.776-2.317-2.4294l.008-7.6-4-.0053-.011 8.1867c-.002 3.6 2.288 5.5226 4.982 5.5253 1.76.0027 3.096-.6347 3.816-1.6213l-.003 1.2533 4 .0053zM173.848 27.1017l.022-18.66668-4-.00533-.008 6.58671c-.878-1.016-2.184-1.6294-3.971-1.632-3.493-.0054-6.376 3.0586-6.381 7.032-.006 3.9733 2.872 7.0426 6.365 7.0479 1.787.0027 3.093-.608 3.976-1.6213l-.003 1.2533 4 .0054zm-7.164-9.9264c1.84 0 3.174 1.256 3.171 3.256-.003 2-1.339 3.2507-3.176 3.2533-1.84-.0026-3.173-1.2586-3.171-3.2586 0-2 1.336-3.2534 3.176-3.2507zM186.122 22.9039c-.536.5867-1.469 1.0107-2.562 1.0107-1.467-.0027-2.694-.4827-3.198-1.872l9.467.0107c.109-.5067.163-1.04.163-1.6.005-4.0267-2.872-7.0427-6.766-7.048-4.213-.0054-7.096 3.0586-7.101 7.032-.005 3.9733 2.819 7.0426 7.379 7.048 2.533.0053 4.506-.928 5.816-2.7387l-3.198-1.8427zm-2.933-5.9493c1.2 0 2.4.5627 2.824 2.1093l-5.733-.0053c.376-1.36 1.389-2.1067 2.909-2.104z" fill="#1743C9"/></svg>